<svg width="77" height="77" viewBox="0 0 77 77" fill="none" xmlns="http://www.w3.org/2000/svg">
<path d="M44.2534 16.357H41.6876C40.7254 16.357 40.084 15.7155 40.084 14.7534V12.1876C40.084 11.2254 40.7254 10.584 41.6876 10.584H44.2534C45.2155 10.584 45.857 11.2254 45.857 12.1876V14.7534C45.857 15.3948 45.2155 16.357 44.2534 16.357Z" fill="#F4F5FE"/>
<path d="M44.2534 26.2984H41.6876C40.7254 26.2984 40.084 25.6569 40.084 24.6948V22.129C40.084 21.1668 40.7254 20.5254 41.6876 20.5254H44.2534C45.2155 20.5254 45.857 21.1668 45.857 22.129V24.6948C45.857 25.6569 45.2155 26.2984 44.2534 26.2984Z" fill="#F4F5FE"/>
<path d="M44.2534 36.2437H41.6876C40.7254 36.2437 40.084 35.6022 40.084 34.6401V32.0743C40.084 31.1121 40.7254 30.4707 41.6876 30.4707H44.2534C45.2155 30.4707 45.857 31.1121 45.857 32.0743V34.6401C45.857 35.6022 45.2155 36.2437 44.2534 36.2437Z" fill="#F4F5FE"/>
<path d="M44.2534 46.1841H41.6876C40.7254 46.1841 40.084 45.5427 40.084 44.5805V42.0147C40.084 41.0526 40.7254 40.4111 41.6876 40.4111H44.2534C45.2155 40.4111 45.857 41.0526 45.857 42.0147V44.9012C45.857 45.5427 45.2155 46.1841 44.2534 46.1841Z" fill="#F4F5FE"/>
<path d="M44.2534 56.4468H41.6876C40.7254 56.4468 40.084 55.8054 40.084 54.8432V52.2774C40.084 51.3153 40.7254 50.6738 41.6876 50.6738H44.2534C45.2155 50.6738 45.857 51.3153 45.857 52.2774V54.8432C45.857 55.4846 45.2155 56.4468 44.2534 56.4468Z" fill="#F4F5FE"/>
<path d="M44.2534 66.3882H41.6876C40.7254 66.3882 40.084 65.7468 40.084 64.7846V62.2188C40.084 61.2567 40.7254 60.6152 41.6876 60.6152H44.2534C45.2155 60.6152 45.857 61.2567 45.857 62.2188V64.7846C45.857 65.7468 45.2155 66.3882 44.2534 66.3882Z" fill="#F4F5FE"/>
<path d="M54.2065 26.2984H51.6407C50.6786 26.2984 50.0371 25.6569 50.0371 24.6948V22.129C50.0371 21.1668 50.6786 20.5254 51.6407 20.5254H54.2065C55.1686 20.5254 55.8101 21.1668 55.8101 22.129V24.6948C55.8101 25.6569 54.8479 26.2984 54.2065 26.2984Z" fill="#F4F5FE"/>
<path d="M54.2065 36.2388H51.6407C50.6786 36.2388 50.0371 35.5974 50.0371 34.6352V32.0694C50.0371 31.1073 50.6786 30.4658 51.6407 30.4658H54.2065C55.1686 30.4658 55.8101 31.1073 55.8101 32.0694V34.6352C55.8101 35.5974 54.8479 36.2388 54.2065 36.2388Z" fill="#F4F5FE"/>
<path d="M54.2065 46.1841H51.6407C50.6786 46.1841 50.0371 45.5427 50.0371 44.5805V42.0147C50.0371 41.0526 50.6786 40.4111 51.6407 40.4111H54.2065C55.1686 40.4111 55.8101 41.0526 55.8101 42.0147V44.9012C55.8101 45.5427 54.8479 46.1841 54.2065 46.1841Z" fill="#F4F5FE"/>
<path d="M54.2065 56.4468H51.6407C50.6786 56.4468 50.0371 55.8054 50.0371 54.8432V52.2774C50.0371 51.3153 50.6786 50.6738 51.6407 50.6738H54.2065C55.1686 50.6738 55.8101 51.3153 55.8101 52.2774V54.8432C55.8101 55.4846 54.8479 56.4468 54.2065 56.4468Z" fill="#F4F5FE"/>
<path d="M63.8237 36.2437H61.2579C60.2957 36.2437 59.6543 35.6022 59.6543 34.6401V32.0743C59.6543 31.1121 60.2957 30.4707 61.2579 30.4707H63.8237C64.7858 30.4707 65.4273 31.1121 65.4273 32.0743V34.6401C65.4273 35.6022 64.7858 36.2437 63.8237 36.2437Z" fill="#F4F5FE"/>
<path d="M63.8237 46.1851H61.2579C60.2957 46.1851 59.6543 45.5436 59.6543 44.5815V42.0157C59.6543 41.0536 60.2957 40.4121 61.2579 40.4121H63.8237C64.7858 40.4121 65.4273 41.0536 65.4273 42.0157V44.9022C65.4273 45.5436 64.7858 46.1851 63.8237 46.1851Z" fill="#F4F5FE"/>
<path d="M34.308 36.2437H31.7423C30.7801 36.2437 30.1387 35.6022 30.1387 34.6401V32.0743C30.1387 31.1121 30.7801 30.4707 31.7423 30.4707H34.308C35.2702 30.4707 35.9116 31.1121 35.9116 32.0743V34.6401C35.9116 35.6022 35.2702 36.2437 34.308 36.2437Z" fill="#F4F5FE"/>
<path d="M34.308 46.1851H31.7423C30.7801 46.1851 30.1387 45.5436 30.1387 44.5815V42.0157C30.1387 41.0536 30.7801 40.4121 31.7423 40.4121H34.308C35.2702 40.4121 35.9116 41.0536 35.9116 42.0157V44.9022C35.9116 45.5436 35.2702 46.1851 34.308 46.1851Z" fill="#F4F5FE"/>
<path d="M24.6846 36.2437H22.4395C21.4774 36.2437 20.8359 35.6022 20.8359 34.6401V32.0743C20.8359 31.1121 21.4774 30.4707 22.4395 30.4707H25.0053C25.6467 30.7914 26.2882 31.4329 26.2882 32.0743V34.6401C26.2882 35.6022 25.6467 36.2437 24.6846 36.2437Z" fill="#F4F5FE"/>
<path d="M24.6846 46.1851H22.4395C21.4774 46.1851 20.8359 45.5436 20.8359 44.5815V42.0157C20.8359 41.0536 21.4774 40.4121 22.4395 40.4121H25.0053C25.9675 40.4121 26.6089 41.0536 26.6089 42.0157V44.9022C26.2882 45.5436 25.6467 46.1851 24.6846 46.1851Z" fill="#F4F5FE"/>
<path d="M15.0694 36.2437H12.8243C11.8621 36.2437 11.2207 35.6022 11.2207 34.6401V32.0743C11.2207 31.1121 11.8621 30.4707 12.8243 30.4707H15.3901C16.0315 30.7914 16.673 31.4329 16.673 32.0743V34.6401C16.673 35.6022 16.0315 36.2437 15.0694 36.2437Z" fill="#F4F5FE"/>
<path d="M15.0694 46.1851H12.8243C11.8621 46.1851 11.2207 45.5436 11.2207 44.5815V42.0157C11.2207 41.0536 11.8621 40.4121 12.8243 40.4121H15.3901C16.3522 40.4121 16.9937 41.0536 16.9937 42.0157V44.9022C16.673 45.5436 16.0315 46.1851 15.0694 46.1851Z" fill="#F4F5FE"/>
<path d="M5.76312 36.2437H3.19735C2.23519 36.2437 1.59375 35.6022 1.59375 34.6401V32.0743C1.59375 31.1121 2.23519 30.4707 3.19735 30.4707H5.76312C6.40456 30.7914 7.046 31.4329 7.046 32.0743V34.6401C7.046 35.6022 6.40456 36.2437 5.76312 36.2437Z" fill="#F4F5FE"/>
<path d="M5.76312 46.1851H3.19735C2.23519 46.1851 1.59375 45.5436 1.59375 44.5815V42.0157C1.59375 41.0536 2.23519 40.4121 3.19735 40.4121H5.76312C6.72528 40.4121 7.36672 41.0536 7.36672 42.0157V44.9022C7.046 45.5436 6.40456 46.1851 5.76312 46.1851Z" fill="#F4F5FE"/>
<path d="M73.7631 41.3726H71.1974C70.2352 41.3726 69.5938 40.7311 69.5938 39.769V37.2032C69.5938 36.2411 70.2352 35.5996 71.1974 35.5996H73.7631C74.7253 35.5996 75.3667 36.2411 75.3667 37.2032V39.769C75.3667 40.7311 74.7253 41.3726 73.7631 41.3726Z" fill="#F4F5FE"/>
</svg>
