<svg id="Teleport" enable-background="new 0 0 64 64" viewBox="0 0 64 64" xmlns="http://www.w3.org/2000/svg"><path d="m50.14457 51.11641c-.14621-.14621-.23772-.31083-.29252-.49364l-.38404-1.24353c-.25603-.85938-1.0423-1.42623-1.93828-1.42623s-1.68225.56685-1.95658 1.42623l-.38393 1.24353c-.12801.43884-.47545.78627-.91429.91429l-1.22522.38393c-.87768.27433-1.44453 1.0423-1.44453 1.95658 0 .89598.56685 1.68225 1.42623 1.93828l.76808.23772c-3.03549 1.71886-6.4 2.85257-9.91094 3.23661-12.17824 1.99308-24.70391-6.69263-27.02623-18.88918-2.24911-9.36228 2.65145-19.58404 11.90402-22.76574 5.86964-2.0846 13.07422-1.48114 17.31652 3.62065 2.04799 2.57824 2.87087 6.01596 2.06629 9.21596-.71317 3.03538-3.87656 5.90625-7.05826 5.11998-.51205-.10971-.62176-.84118-.16462-1.0971 2.72466-1.62745 3.49263-4.73605 2.57835-7.58862-1.64576-4.66283-7.84464-4.99196-12.12344-2.92567-7.75313 3.67545-8.26518 13.62277-3.82176 20.00458 7.424 11.46507 24.94174 8.83192 32.71317-1.20692 2.92578-3.52913 4.88225-7.97254 5.66864-12.8731.09141-.78627 1.31652-.76797 1.40792 0 1.28002 7.84453-1.77366 15.61596-7.20458 21.21139zm1.38974-28.26964c-2.32233-12.19666-14.848-20.88237-27.02623-18.88918-4.2423.45714-8.24688 2.01138-11.73951 4.37031l.38404.12801c.87768.25591 1.46284 1.06049 1.46284 1.97478s-.58516 1.70056-1.46284 1.97489l-1.42634.43884c-.60335.20112-1.07879.65826-1.26172 1.26172l-.43884 1.44453c-.27422.87779-1.06049 1.46295-1.99308 1.46295-.89598 0-1.70056-.58516-1.97489-1.46295l-.18281-.62165c-3.91317 5.24799-5.90636 11.79431-4.82746 18.41373.09141.76797 1.31652.76797 1.40804 0 .78627-4.90056 2.74286-9.34397 5.66853-12.87321 7.77143-10.03884 25.28918-12.67199 32.71317-1.22511 4.44341 6.3817 3.93136 16.32913-3.82177 20.00458-4.27879 2.0846-10.47768 1.73717-12.12344-2.90736-.91429-2.85268-.14632-5.96116 2.57835-7.58862.45714-.25603.34743-1.00569-.16462-1.1154-3.1817-.76808-6.34509 2.10279-7.05826 5.13828-.80458 3.2.0183 6.61942 2.06629 9.21596 4.2423 5.10167 11.44687 5.70513 17.31652 3.62053 9.25257-3.20001 14.15313-13.40336 11.90403-22.76563zm-46.59954 27.29051-.48201 1.563c-.39848 1.29214-1.41004 2.3037-2.70218 2.70218l-1.563.48201c-.25011.07713-.25011.43117 0 .5083l1.563.48201c1.29214.39848 2.30369 1.41004 2.70218 2.70218l.48201 1.563c.07713.25011.43117.25011.5083 0l.48201-1.563c.39848-1.29214 1.41004-2.30369 2.70218-2.70218l1.563-.48201c.25011-.07713.25011-.43117 0-.5083l-1.563-.48201c-1.29214-.39848-2.30369-1.41004-2.70218-2.70218l-.48201-1.563c-.07713-.25011-.43116-.25011-.5083 0zm42.38897-.21217-.38047 1.23374c-.31454 1.01994-1.113 1.8184-2.13293 2.13294l-1.23374.38047c-.19743.06089-.19743.34034 0 .40122l1.23374.38047c1.01994.31454 1.8184 1.113 2.13293 2.13293l.38047 1.23374c.06088.19743.34034.19743.40122 0l.38047-1.23374c.31454-1.01994 1.113-1.8184 2.13294-2.13293l1.23374-.38047c.19742-.06088.19742-.34034 0-.40122l-1.23374-.38047c-1.01994-.31454-1.8184-1.113-2.13294-2.13294l-.38047-1.23374c-.06088-.19743-.34034-.19743-.40122 0zm11.74904-33.71117-.43634 1.41487c-.36072 1.16968-1.27641 2.08537-2.44609 2.44609l-1.41487.43633c-.22641.06982-.22641.39031 0 .46013l1.41487.43633c1.16968.36072 2.08537 1.27641 2.44609 2.44609l.43634 1.41487c.06982.22641.3903.22641.46012 0l.43633-1.41487c.36072-1.16968 1.27641-2.08537 2.44609-2.44609l1.41487-.43633c.22641-.06982.22641-.39031 0-.46013l-1.41487-.43633c-1.16968-.36072-2.08537-1.27641-2.44609-2.44609l-.43633-1.41487c-.06982-.22641-.3903-.22641-.46012 0zm-51.26372-10.36324-.44122 1.43071c-.36476 1.18277-1.2907 2.10871-2.47347 2.47347l-1.43071.44122c-.22894.0706-.22894.39467 0 .46528l1.43071.44122c1.18277.36476 2.10871 1.2907 2.47347 2.47347l.44122 1.43071c.0706.22894.39467.22894.46528 0l.44122-1.43071c.36476-1.18277 1.2907-2.10871 2.47347-2.47347l1.43071-.44122c.22894-.0706.22894-.39467 0-.46528l-1.43071-.44122c-1.18277-.36476-2.10871-1.2907-2.47347-2.47347l-.44122-1.43071c-.07061-.22894-.39468-.22894-.46528 0z"/></svg>